<svg xmlns="http://www.w3.org/2000/svg" height="247.7" width="250" viewBox="0 0 250 247.69519">
 <g transform="matrix(1.2414 0 0 1.2414 .89582 -.70671)">
  <path fill="#fff" d="m49.924 28.523s-30.275 1.2997-37.615 19.724h16.284s-1.3761 4.052-2.1407 9.4037l-23.7 13.685 21.789-4.282s-0.99388 6.1162-0.68807 14.297l-23.853 23.469 24.235-12.995c0.30581 2.1407 3.3639 15.902 3.3639 15.902l-13.838 22.859 13.609-9.4037s-5.581 6.1162-6.4985 11.621c-0.91743 5.5046 5.3517 8.4862 9.9388 21.635 4.5872 13.15 6.0398 20.107 13.685 25.306 7.6453 5.1988 43.272 17.505 50.841 18.578 19.954 2.8288 27.673-0.57124 36.774-4.1284 8.4098-3.2875 31.779-15.928 33.613-23.879 1.8349-7.9511-1.8459-29.773-1.1976-30.861 4.2813-7.1866 7.4159-15.214 7.4159-15.214l12.232 15.596-8.2569-24.465s0.91743-3.7462 1.8349-7.6453l13.379 13.761-11.239-22.63s1.4526-4.2814 1.8349-9.1743l14.297 10.856-12.615-18.731s0.38226-3.4404 0.30581-5.734l16.055 11.009-15.291-18.807c0-1.2232-0.45872-5.4281-0.45872-5.4281s-7.263-4.052-10.168-7.5688c0 0 15.443-5.734 20.183-14.067 0 0-14.602-3.1346-23.012-7.7982l24.083-13.99-28.135 7.7982 18.654-18.119-23.089 13.073 8.104-13.456-16.896 12.003s-8.8685-9.3272-21.407-14.373c-9.41-3.7874-15.58-5.7263-40.883-2.0565-8.823 1.2795-18.883 11.086-18.883 11.086l-17.737-11.928 9.276 15.393-30.428-17.38 23.7 22.069-34.047-10.448 26.606 15.443"/>
  <g>
   <path d="m103.13 9.7773s-20.995 2.3359-22.84 3.3652c-2.0587 1.1474-7.4828 5.7407-9.2773 7.2324l-1.625 1.9473 0.55664 9.4609 4.3008 5.3613 29.236 1.9727 28.379-0.35352s15.784-0.86133 15.986-0.86133c0.20245 0 5.8672-3.8438 5.8672-3.8438s1.2124-5.9687 0.64844-6.4531c-0.55413-0.47523-2.6001-5.1591-4.3555-7.0723-0.37798-0.41162-7.0684-4.0781-7.0684-4.0781l-39.81-6.6777zm-42.163 46.782c-25.704 0.4948-32.443 3.4023-32.443 3.4023l-1.2559 9.3164 6.9707-0.52734 17.379-7.1387 8.4648-3.2578 0.88477-1.7949zm99.104 2.5273 0.39258 1.6309 16.764 12.201 4.666-0.125 0.1289-1.7363c-10.14-8.48-17.48-11.839-21.95-11.971zm-104.92 9.861c-19.229 5.485-29.041 13.977-29.041 13.977-0.23101 0.29786 0.74023 9.2324 0.74023 9.2324l1.6719 0.18359 18.766-12.424s6.3633-6.6513 6.3438-7.2012c-0.01939-0.52844 1.5195-3.7676 1.5195-3.7676zm106.71 2.9922 0.0664 1.4375 17.775 14.721 0.77734-4.5039c-3.74-3.581-11.75-9.671-18.61-11.654h-0.002zm-107.9 11.018c0.06495-0.3315-16.95 12.753-23.393 25.439 0 0 1.1566 4.1635 3.1387 8.5586 0.13498 0.29847 3.5031-1.0256 17.875-22.533l2.793-6.3477c-0.01792-0.096-0.47975-4.7869-0.41406-5.1172zm106.77 1.0039-0.2207 1.6465 7.0195 11.973 8.834 6.4316s1.3127-5.2065 1.1445-5.4004c-10.402-11.919-16.777-14.65-16.777-14.65zm-2.7695 11.152-0.60937 2.6406s12.414 25.37 12.709 24.799c1.0104-1.9627 2.1641-6.0508 2.1641-6.0508-8.0728-16.391-14.264-21.389-14.264-21.389zm-100.06 6.317s-8.4911 12.224-17.346 28.314c-0.24251 0.44097 5.9167 9.7109 6.2148 9.9102 0.70404 0.46967 15.327-29.504 14.93-30.164-0.39633-0.66055-3.7988-8.0606-3.7988-8.0606zm95.146 7.748s-3.3347 6.7219-4.002 7.0039c-0.66667 0.2844-11.717 30.279-11.717 30.279l-40.088-4.6992s-19.95-12.445-20.414-12.83c-0.46605-0.38471-7.1648-7.0828-7.5098-7.832-0.27645-0.60184-9.8873 35.287-9.7109 35.473 0.323 0.34336 9.9979 10.95 10.318 10.906 0.3211-0.0423 14.488 5.5859 14.488 5.5859l17.301 6.8594 8.4394 10.744 2.9941 1.5996 4.2891-2.9941 9.4922-10.504 13.457-16.57 6.7969-5.3027 6.4356-11.088s3.9778-2.158 4.0879-2.3281c0.76942-1.1716 6.5665-9.7129 6.6387-9.8848 0.36147-0.87768-2.3066-12.736-2.3066-12.736l-7.5488-11.678-1.4414-0.004z" fill="#F6BE00"/>
   <path d="m87.653 121.72-0.18593-9.6428-1.3113-9.7382c-1.7786 2.2471-9.6428 26.309-9.6428 26.309 18.256 17.786 37.543 50.088 37.543 50.088 35.671-39.978 35.204-60.856 35.204-62.259 0-1.4049-7.3028-15.917-8.8948-18.071 0 0-3.2771 4.6826-0.46789 20.88l-2.3413-1.2184 2.3413 10.768-2.5284-0.56269c-3.0893-0.0936-6.9278 11.796-22.657 13.015-9.4942 0.73321-18.631-7.6789-22.47-15.075l-3.0893 1.592 1.3113-8.0514-2.8098 1.9664" fill="#000"/>
   <path d="m114.64 4.5078c-4.6375 0.0005392-15.05 0.51534-21.264 1.5273-7.4875 1.2196-11.261 5.0538-13.57 7.4551-2.0453 2.129-5.4585 8.7658 3.9941 8.8594 2.745 0.02753 5.1165-3.5242 7.9551-5.334l-2.3086-4.2422 16.84 3.5742c0.006-0.08012-4.8613 1.668-4.8613 1.668 4.0251 4.0556 8.7357 11.51 14.039 13.568 0 0-6.5512 2.4643-11.043 1.123-2.3853-0.71254-5.3974-5.1151-8.0176-8.2344 0 0-10.046 2.3075-17.502 2.0586 0 0 0.5289 10.242 0.25 10.17-0.96758-0.24954-5.4672-6.8863-5.6152-6.7383-0.74862 0.7474-1.5293 2.5566-1.5293 2.5566-3.1823-4.9902-1.432-10.902-0.7207-12.322h-0.0625s-8.3619 6.1461-13.01 8.0488c0 0 5.8641 1.5302 7.3926 4.1191 2.3988 4.0618 5.0556 6.9254 2.7773 22.617 0 0 3.6658 0.03257 7.9551 0.81055 6.0214 1.0917 9.5472 3.0587 14.32 3.8379l-9.2344-12.197 15.973 6.5508-4.2109-10.514 12.377 4.8457-1.7383-6.873c10.354 5.704 17.918 8.0265 25.301 4.3359 3.9933-1.9963 6.8008-2.7441 6.8008-2.7441l-1.2188 5.998 11.732-4.4082-7.0801 11.262 10.918-4.5859-6.084 6.9258s7.987-1.4662 13.008-1.1543c0 0-1.099-2.5058-2.0586-9.5762-1.2477-9.2024 5.8032-12.573 8.2051-14.102l-9.0449-5.8652c-0.99816 2.4966-3.4099 7.259-3.5879 7.1758-0.53089-0.25015-0.87411-9.4216-1.123-9.2969-0.57554 0.28746-1.1546 0.99815-2.4024 1.0605-1.071 0.05321-10.014-2.9316-10.014-2.9316-4.959 5.3969-7.362 8.7653-9.4844 8.9219-2.2428 0.16392-4.0547-1.0918-4.0547-1.0918 4.929-1.2795 7.1747-9.6408 9.7949-12.168l-5.1797-2.4004c-0.0936 0 12.293-0.34375 12.293-0.34375l-1.2168 2.3711c8.674 6.3633 12.139 3.243 10.512 1.498-2.5865-2.7774-5.4894-4.0555-7.8906-5.5527-3.071-1.915-12.106-9.515-25.707-10.232-0.39779-0.021024-0.94102-0.031327-1.6035-0.03125zm-74.949 1.6465s13.533 10.688 20.266 17.35l3.6094-2.498c-2.637-1.25-20.613-14.296-23.875-14.852zm17.975 0.20703s5.8306 8.2587 9.1621 12.354l3.5391-1.9414c-6.315-5.831-12.215-10.344-12.701-10.413zm110.68 4.9667s-9.4758 7.5918-13.727 12.025l2.7324 1.8242c3.8875-4.0703 10.994-13.85 10.994-13.85zm12.391 1.2754s-8.8071 5.162-21.016 14.029l3.2188 2.0664 17.797-16.096zm-148.54 4.585c2.8455 1.5963 21.098 10.689 21.098 10.689l3.0566-2.082c-8.884-5.414-24.346-8.715-24.155-8.607zm157.05 4.6484s-18.344 5.1007-23.871 8.2598l2.9766 2.6113 20.895-10.871zm-139.36 9.502c-0.48092-0.0069-0.96166-0.000465-1.4375 0.01758-4.7408 0.18043-19.438 1.3195-32.576 14.398l17.217 0.11914c-2.2191 1.6795-3.7188 10.92-3.7188 10.92 2.64-1.0801 16.679-3.12 32.158-2.6992 0 0 2.0145-6.2103 2.4004-11.1 0.675-8.549-6.828-11.552-14.042-11.656zm120.09 5.066c-2.7452-0.0206-7.3636 1.9057-9.7012 5.4121-3.3768 5.0654-1.7616 11.057-0.66797 14.701 0 0 8.5626-0.97173 22.594 11.053l-0.18164-3.4023c-9.7792-7.1058-13.059-11.053-13.059-11.053 7.8361 2.611 21.986-11.176 21.986-11.176-11.479-2.1865-19.922-5.4062-19.922-5.4062-0.30367-0.08349-0.65665-0.12596-1.0488-0.12891zm-51.713 12.301c-7.2817 0.1461-14.335 1.5662-20.02 4.002l22.152 6.3926 0.0527 9.9785s-6.4906 4.1821-12.123 4.1289c-5.348-0.0514-9.2789-2.8963-14-5.418 0 0-1.5569 8.2079-3.8633 11.373-3.3162 4.5498-4.4529 6.7036-6.9746 8.5293 0 0 6.0633-0.26948 7.5098 7.1152 0.29358 1.4924 0.75311 5.2244-0.1582 12.625-0.83242 6.7456 5.1507 11.048 10.459 11.586 4.2379 0.42875 6.9752-3.5388 14.539-4.1816 6.6165-0.56392 6.8557 2.9766 12.818 3.4316 6.3297 0.48135 8.5291-5.793 8.3144-6.9746-0.55658-3.063-1.1392-11.511-0.84375-14.008 0.68501-5.7859 1.293-11.493 7.4961-12.49 0 0 0.59069-0.10629-0.0527-1.1797-2.1566-3.5927-2.4134-10.996-1.5547-17.916 0 0-6.0758 5.2977-10.354 5.8457-4.6134 0.5896-7.7246-2.5195-7.7246-2.5195l0.75-9.6035 14.967-7.0801c-6.5979-2.655-14.109-3.7828-21.391-3.6367zm-49.242 8.9883c-0.67058-0.0035-1.0762 0.0059-1.0762 0.0059-0.12294 1.1376-1.5312 7.293-1.5312 7.293 12.114-0.9633 18.91-0.98828 18.91-0.98828-1.7052-2.0526-3.1009-4.3137-6.8477-5.3418-3.0408-0.83348-7.4434-0.95811-9.4551-0.96875zm-8.9336 0.66016s-21.658 2.6398-32.816 10.799c0 0-1.0187 5.88-0.95898 10.26 0 0 10.079-8.5202 29.637-13.379 0 0 3.2387-6.2387 4.1387-7.6797zm-32.758 0.84-19.258 9.959 17.338-4.08 1.92-5.879zm128.37 0.495c-1.2183-0.01651-2.9026 0.0087-4.7695 0.17383 0 0-2.0162 3.9333-2.248 4.4941l9.3848 3.3027c-0.59513-0.75963-0.13376-2.6747-0.0684-3.7988 0.0654-1.1223-0.23098-3.6353-0.33007-4.0977 0 0-0.75048-0.05771-1.9688-0.07422zm4.748 0.71484s0.66805 5.0409 1.2754 8.8066c0 0 6.1952 0.30422 19.254 11.115 0 0 0.85091-5.5875 0.91211-7.5312 0 0-12.634-10.933-21.441-12.391zm-73.699 6.1973s-14.485-0.000886-21.406 1.3086l0.41797 8.1094c10.309-3.3627 18.69-4.4507 21.459-4.252 0 0 0.36966-3.4853-0.4707-5.166zm60.744 0.13477s-0.89167 2.2794-1.0898 8.5234c0 0 3.5024 0.62699 8.8223 3.4355 0 0 1.3205-2.313 2.2129-8.5234 0 0-9.0866-3.1059-9.9453-3.4355zm36.582 4.2363-0.54687 3.0977 12.209 9.4141-11.662-12.512zm-130.3 1.181s-16.859 5.2188-26.998 20.037c0 0 1.5009 9.7197 2.5801 12.24 0 0 7.2594-11.76 24.117-24.539 0 0-0.59989-5.3982 0.30078-7.7383zm108.13 0.88281s-0.18369 5.8298-0.60938 8.2598c-0.0208 0.11926 4.861 0.97182 16.887 13.848 0 0 1.3359-5.7703 1.5176-7.0449 0 0-3.6445-8.8662-17.795-15.062zm-23.463 0.18555c0.12407 0.01622 0.22978 0.05158 0.31445 0.10938 2.0214 1.3804-6.8027 15.822-6.8027 15.822 3.6483-9.9578 0.54262-11.533-0.0488-11.977l-3.3047 3.2031-16.068 1.1328-6.4102-2.0703s-3.7956 6.1643-1.2812 11.734c0 0-6.1118-7.4941-5.4219-16.17l6.6055 3.2539s12.029-2.9537 16.465-3.2051c2.6128-0.1474 5.1744 1.0863 8.1328 2.0723 0 0 5.9593-4.1496 7.8203-3.9062zm-51.473 1.041s-5.5133-0.02402-20.963 4.3516c0 0 0.20761 6.127 2.752 12.471 1.5982 3.9853 5.5177 10.078 8.9531 14.736l6.0195-8.8633s-6.1843-8.6817-7.5391-10.168c0 0 8.0954-3.5359 10.777-12.527zm59.629 3.6719s0.59548 7.0707 1.2891 7.9961l-5.6484 8.3926 3.668 4.9883s7.432-13.016 8.0938-18.369c0 0-5.8825-3.0408-7.4023-3.0078zm-122.52 5.738-17.94 16.258 18.241-10.379-0.301-5.879zm158.78 0.23438-0.78711 4.0098 10.627 8.9883-9.8398-12.998zm-22.352 1.7012s-1.032 4.9801-1.5781 6.5605c0 0 6.8636 5.4675 14.576 20.711 0 0 2.431-7.5914 2.8555-8.8672 0 0-6.6217-12.513-15.854-18.404zm-106.08 2.567c-17.878 16.496-20.699 28.736-20.699 28.736 0.41982 1.6184 5.2207 10.195 5.2207 10.195 2.58-6.4184 17.938-28.916 17.938-28.916-0.36-1.2-2.459-10.018-2.459-10.018zm102.91 9.5801c-0.0116-0.01651-4.3125 11.42-4.3125 11.42 5.8917 6.5584 11.297 24.418 11.297 24.418 4.7982-6.8031 5.7715-11.299 5.7715-11.299s-1.2146-9.1122-12.756-24.539zm-52.654 1.8496 4.3359 7.6914s8.233-1.3809 9.0703-1.3809c0.79021 0 8.332 1.7266 8.332 1.7266l4.0918-7.3457-1.5762 11.881c-0.88868-0.39511-2.4162-0.93752-3.8945-1.2812-2.7731-0.6477-5.2735-1.0859-6.1133-1.0859-0.78838 0-7.6278 0.80428-8.0859 0.88868-0.43608 0.0801-5.373 1.1816-5.373 1.1816l-0.78711-12.275zm74.885 1.248-1.0332 4.6777 9.8398 12.146-8.8066-16.824zm-150.58 8.1387-11.879 18.299 14.098-13.318-2.2188-4.9805zm32.576 0.36133s-7.4398 7.9808-14.818 30.299c0 0 8.2815 11.816 13.08 17.096 0 0 6.9591-30.235 9.5371-35.576 0 0-7.1291-10.209-7.7988-11.818zm113.08 8.1426-2.0039 4.0078 8.5644 13.242-6.5606-17.25zm-56.699 2.2637c-0.70573-0.0126-1.4338-0.00004-2.1855 0.0371-3.7321 0.18532-12.768 2.4381-12.787 3.2051-0.0324 1.3547 5.1229 4.9901 6.9394 3.8672 1.8177-1.1242 4.6916-3.7351 8.623-3.8672 4.8654-0.16391 10.804 3.2708 12.818 3.1387 0.57737-0.0385-0.23012-2.3455-1.75-3.2715-2.8926-1.7602-6.7181-3.021-11.658-3.1094zm-87.988 2.3184s-6.839 9.6142-5.5508 11.992c5.2187 9.633 8.9311 17.888 10.109 20.418 6.74 14.471 5.4833 17.417 7.6328 19.129 6.8397 5.4518 22.738 9.4258 28.348 11.994 18.832 8.6238 20.121 7.6317 22.697 8.9199 5.2336 2.6183 8.9199 1.0898 8.9199 1.0898-33.003-12.38-57.583-47.86-72.153-73.53zm124.71 5.8242-4.4004 11.703 0.56055 6.9258-3.0898-1.5898-1.9648 11.328-3.2773-2.9004c-12.92 19.754-30.24 37.541-30.24 37.541-2.8086-8.5212-20.41-33.143-20.41-33.143l-4.9629 6.0859-0.8418-10.768-4.7754 5.4316s-0.37464-14.231-0.84375-14.793c-0.46728-0.56141-6.084-6.834-6.084-6.834-4.9621 12.265-4.6816 30.426-4.6816 30.426 9.5492 10.112 30.334 24.531 43.16 25.936 0 0 24.344-3.1848 45.035-50.09 0 0-0.93711-11.609-3.1836-15.26zm7.6699 18.094c-7.6245 15.985-16.723 34.113-35.184 46.822 0 0 4.5468-0.40105 9.1621-3.6133 3.5187-2.4476 9.5654-7.2637 11.975-8.7617 2.4752-1.5362 9.5326-6.53 12.039-12.107 1.4673-3.2636 1.6886-9.5987 1.8066-14.715 0.0966-4.2154 0.20118-7.625 0.20118-7.625z"/>
  </g>
  <path fill="#fff" d="m144.04 29.314c-0.55291 0.12783-4.1738 0.85156-4.1738 0.85156 2.0434 1.0654 1.0426 3.0411-0.25586 3.3652-1.0208 0.25688-2.725-0.76652-1.6191-2.8105 0 0-3.1082 1.3203-3.918 1.916 0 0 0.54677 1.9147 1.3633 2.8535 0.85199 0.97859 2.8535 2.1723 5.793 1.3203 1.2838-0.37248 2.8821-2.1587 3.4062-4.2578 0.29847-1.1927-0.5957-3.2383-0.5957-3.2383zm-54.771 0.72852c-0.2079-0.0046-0.40931 0.0071-0.5957 0.03906 0 0-1.3616 2.2151 0.12891 4.8555 0.54862 0.97125 1.3747 2.0038 3.0664 2.4258 2.2275 0.55719 3.7512-0.0095 4.7695-0.72266 1.9401-1.359 2.0879-3.791 2.0879-3.791-1.404-0.597-3.619-1.108-3.619-1.108 0.298 0.639-0.169 2.513-2.045 2.258-1.2453-0.17003-1.9172-2.3852-0.51172-3.1094 0 0-1.824-0.81511-3.2793-0.84766z"/>
 </g>
</svg>
